<svg width="32" height="32" viewBox="0 0 32 32" fill="none" xmlns="http://www.w3.org/2000/svg"><path fill-rule="evenodd" clip-rule="evenodd" d="M0 0h32v32H0V0Z" fill="#EFF2F9"/><path fill-rule="evenodd" clip-rule="evenodd" d="M9 23c0 .6.5 1 1 1h12c.5 0 1-.4 1-1v-1a1 1 0 0 0-.7-1l-3.7-1.4a.6.6 0 0 1-.3-.5v-.6c0-.2 0-.3.2-.4.6-.7 1.1-1.9 1.2-2.2l.1-.1c.2-.1.4-.4.5-1 .1-.6 0-1-.2-1.1l-.2-.3v-2.6a3 3 0 0 0-2-2.5c-1-.4-2.8-.4-3.8 0a3 3 0 0 0-2 2.5v2.6l-.2.3c-.1.1-.4.5-.2 1 0 .7.3 1 .4 1l.2.2c0 .4.5 1.4 1.2 2.2l.2.4v.6c0 .2-.2.4-.4.6L9.7 21a1 1 0 0 0-.6 1v.9Z" fill="#BEC4D5"/></svg>