<svg xmlns="http://www.w3.org/2000/svg" width="120" height="32" viewBox="0 0 120 32"><path fill="#2F8DEB" d="M22.26 5.31H6.35c-.3 0-.55.25-.55.55v6.97h8.9c.3 0 .55.24.55.54v8.85h7.01c.3 0 .55-.25.55-.55V5.87c0-.31-.24-.56-.55-.56z"/><path fill="#A0D6FA" d="M15.25 13.37c0-.3-.25-.54-.55-.54H.99c-.3 0-.55.24-.55.54V27c0 .3.25.55.55.55h13.7c.31 0 .56-.25.56-.55v-4.77h-.56a8.88 8.88 0 01-8.9-8.83v-.56h8.9c.31 0 .56.24.56.54z"/><path fill="#FFF" d="M14.68 22.22h.57zM14.7 12.83H5.8v.56a8.88 8.88 0 008.88 8.83h.57v-8.85c0-.3-.25-.54-.55-.54z"/><path d="M38.68 12.27v1.9s-.32-.11-.64-.11a2.35 2.35 0 00-2.33 2.32v5.37H33.8v-9.48h1.38l.42.95s.85-1.06 2.44-1.06c.43 0 .64.1.64.1zM48.4 19a4.22 4.22 0 01-4.14 2.84c-2.54 0-4.56-2-4.56-4.84 0-2.85 2.02-4.85 4.46-4.85 2.43 0 4.45 2 4.45 4.85 0 .42-.1.84-.1.84h-6.8a2.54 2.54 0 002.55 2.21c1.17 0 1.8-.63 2.12-1.05h2.02zm-6.68-2.74h5.09c-.21-1.37-1.17-2.32-2.65-2.32-1.28 0-2.23.95-2.44 2.32zM51.9 18.7c.1.85.64 1.37 1.7 1.37 1.16 0 1.7-.52 1.7-1.15 0-1.69-5.1-.53-5.1-3.9 0-1.58 1.28-2.85 3.3-2.85 2.22 0 3.39 1.16 3.5 2.95h-1.92c-.1-.63-.63-1.16-1.59-1.16-.95 0-1.48.53-1.48 1.06 0 1.68 5.09.52 5.09 3.9 0 1.68-1.28 2.95-3.5 2.95-2.34 0-3.5-1.16-3.61-3.16h1.91zm6.99-.94v-5.48h1.91v5.48a2.33 2.33 0 002.23 2.31 2.35 2.35 0 002.33-2.31v-5.48h1.91v9.48H65.9l-.42-.95s-.85 1.05-2.76 1.05c-2.12 0-3.82-1.68-3.82-4.1zm23.84-1.69v5.69h-1.9v-5.69c0-1.26-.86-2.1-1.81-2.1-.96 0-1.8.84-1.8 2.1v5.69h-1.91v-5.69c0-1.26-.85-2.1-1.8-2.1-.96 0-1.81.84-1.81 2.1v5.69H69.8v-9.48h1.38l.42.95s.85-1.06 2.34-1.06a3.2 3.2 0 012.65 1.48c0 .02.95-1.48 2.86-1.48 1.8 0 3.3 1.48 3.3 3.9zm10.66 2.95a4.21 4.21 0 01-4.14 2.84c-2.54 0-4.56-2-4.56-4.84 0-2.85 2.02-4.85 4.46-4.85s4.45 2 4.45 4.85c0 .42-.1.84-.1.84h-6.8a2.54 2.54 0 002.55 2.21c1.17 0 1.8-.63 2.12-1.05h2.02zm-6.68-2.74h5.09c-.21-1.37-1.17-2.32-2.65-2.32-1.28 0-2.23.95-2.44 2.32zm8.95 5.71c-.64 0-1.17-.53-1.17-1.16 0-.63.53-1.16 1.17-1.16.63 0 1.16.53 1.16 1.16 0 .63-.53 1.16-1.16 1.16zM98.8 9.63a1.17 1.17 0 012.33 0c0 .64-.53 1.16-1.16 1.16-.64 0-1.17-.52-1.17-1.16zm2.12 12.12h-1.9v-9.48h1.9v9.48zm6.54.1c-2.54 0-4.56-2-4.56-4.84 0-2.85 2.02-4.85 4.56-4.85 2.55 0 4.56 2 4.56 4.85 0 2.84-2.01 4.84-4.56 4.84zm0-7.9c-1.38 0-2.65 1.27-2.65 3.06s1.27 3.05 2.65 3.05 2.65-1.26 2.65-3.05c0-1.8-1.27-3.06-2.65-3.06z" fill="#262B33"/></svg>