<svg xmlns="http://www.w3.org/2000/svg" width="40" height="40" viewBox="0 0 40 40">
  <g fill="none" fill-rule="evenodd" transform="translate(12 6)">
    <polygon fill="#CCE8FF" points="9 0 17 0 17 8 15 8 15 12 13 12 15 25 17 25 18 29 9 29"/>
    <polygon stroke="#2196F3" stroke-linejoin="round" stroke-width="2" points="1 8 1 0 17 0 17 8"/>
    <polygon stroke="#2196F3" stroke-linejoin="round" stroke-width="2" points="1 25 17 25 18 29 0 29"/>
    <polygon stroke="#2196F3" stroke-width="2" points="3 25 5 12 13 12 15 25"/>
    <polygon stroke="#2196F3" stroke-linejoin="round" stroke-width="2" points="3 8 3 12 15 12 15 8"/>
    <path stroke="#2196F3" stroke-width="2" d="M6 4L6 1M12 4L12 1"/>
  </g>
</svg>
