<svg xmlns="http://www.w3.org/2000/svg" width="40" height="40" viewBox="0 0 40 40">
  <g fill="none" fill-rule="evenodd" transform="translate(7 6)">
    <polygon fill="#CCE8FF" points="1 9 1 18 10 18 23 24.5 23 19"/>
    <path stroke="#2196F3" stroke-width="2" d="M10,7 L10,19 L2,19 C0.8954305,19 1.3527075e-16,18.1045695 0,17 L0,9 C-1.3527075e-16,7.8954305 0.8954305,7 2,7 L10,7 Z"/>
    <path fill="#CCE8FF" stroke="#2196F3" stroke-width="2" d="M25,16.8739825 C26.7252272,16.4299397 28,14.8638394 28,13 C28,11.1361606 26.7252272,9.57006028 25,9.12601749 L25,16.8739825 Z"/>
    <path stroke="#2196F3" stroke-linejoin="round" stroke-width="2" d="M3 19L5 25.5C5.66666667 26.8333333 6.66666667 27.3333333 8 27 9.33333333 26.6666667 10 25.8333333 10 24.5L8 19M10 7C11.3382161 6.66422526 13.3382161 5.83089193 16 4.5 18.1583634 3.42081829 20.3199374 2.23044601 22.4847218.928883184L22.4847223.92888406C22.9580422.644303494 23.5724419.79730695 23.8570225 1.27062684 23.9505735 1.42622272 24 1.6043515 24 1.78590554L23.9999731 24.2402356C23.9999731 24.7925055 23.5522699 25.2402087 23 25.2402087 22.8211494 25.2402087 22.6455719 25.1922411 22.491565 25.1013047 19.8717342 23.5543745 17.7078792 22.3539396 16 21.5 13.9746094 20.4873047 11.9746094 19.6539714 10 19L10 7z"/>
  </g>
</svg>
