<svg xmlns="http://www.w3.org/2000/svg" width="40" height="40" viewBox="0 0 40 40">
  <g fill="none" fill-rule="evenodd">
    <rect width="3" height="4" x="15" y="32" fill="#CCE8FF"/>
    <circle cx="16.5" cy="28.5" r="2.5" fill="#CCE8FF"/>
    <path fill="#2196F3" d="M20,31.3286672 L20,33 L31,33 L31,14 L25,14 C24.4477153,14 24,13.5522847 24,13 L24,6 L9,6 L9,33 L13,33 L13,31.3286672 C12.3746001,30.5558041 12,29.5716483 12,28.5 C12,26.0147186 14.0147186,24 16.5,24 C18.9852814,24 21,26.0147186 21,28.5 C21,29.5716483 20.6253999,30.5558041 20,31.3286672 Z M18,32.7439414 C17.5308316,32.9097687 17.0259531,33 16.5,33 C15.9740469,33 15.4691684,32.9097687 15,32.7439414 L15,35.522967 L16.1286093,35.0715233 C16.3670204,34.9761589 16.6329796,34.9761589 16.8713907,35.0715233 L18,35.522967 L18,32.7439414 Z M13,35 L8.5,35 C7.67157288,35 7,34.3284271 7,33.5 L7,5.5 C7,4.67157288 7.67157288,4 8.5,4 L26.4599349,4 L33,11.6300759 L33,33.5 C33,34.3284271 32.3284271,35 31.5,35 L20,35 L20,37 C20,37.7074646 19.2854737,38.1912224 18.6286093,37.9284767 L16.5,37.077033 L14.3713907,37.9284767 C13.7145263,38.1912224 13,37.7074646 13,37 L13,35 Z M30.6153846,12 L26,6 L26,12 L30.6153846,12 Z M23,26 L27,26 L27,28 L23,28 L23,26 Z M13,16 L27,16 L27,18 L13,18 L13,16 Z M13,20 L27,20 L27,22 L13,22 L13,20 Z M16.5,31 C17.8807119,31 19,29.8807119 19,28.5 C19,27.1192881 17.8807119,26 16.5,26 C15.1192881,26 14,27.1192881 14,28.5 C14,29.8807119 15.1192881,31 16.5,31 Z"/>
  </g>
</svg>
