<svg xmlns="http://www.w3.org/2000/svg" width="40" height="40" viewBox="0 0 40 40">
  <g fill="none" fill-rule="evenodd" transform="translate(8 1)">
    <polygon fill="#CCE8FF" points="12 24 12 37 19 37 21 24"/>
    <rect width="10" height="3" x="12" y="20" fill="#CCE8FF"/>
    <rect width="22" height="5" x="1" y="19" stroke="#2196F3" stroke-width="2" rx="1"/>
    <polygon stroke="#2196F3" stroke-linejoin="round" stroke-width="2" points="2.5 24 5 37 19 37 21.5 24"/>
    <rect width="2" height="8" x="11" y="12" fill="#2196F3"/>
    <path stroke="#2196F3" stroke-linejoin="round" stroke-width="2" d="M12,12 C9,9 12.5,0.5 20,0.5 C23,7.5 15.7583465,14 12,12 Z"/>
    <path stroke="#2196F3" stroke-width="2" d="M12,12 L16,6.5"/>
    <path stroke="#2196F3" stroke-linejoin="round" stroke-width="2" d="M12,14 C9.5,16.5 1,16 0,7 C9.5,4.5 11.5,10.7528704 12,14 Z"/>
    <path stroke="#2196F3" stroke-width="2" d="M12,14 L6,11"/>
  </g>
</svg>
