<svg xmlns="http://www.w3.org/2000/svg" width="40" height="40" viewBox="0 0 40 40">
  <g fill="none" fill-rule="evenodd" transform="translate(5 5)">
    <polygon fill="#CCE8FF" points="18 28 20.8 24 13 24 15 28"/>
    <polygon fill="#CCE8FF" points="8 0 13 24 19.87 24 12 0"/>
    <path stroke="#2196F3" stroke-width="2" d="M3,24 L19.1125741,24 C19.6648589,24 20.1125741,23.5522847 20.1125741,23 C20.1125741,22.8925179 20.0952462,22.7857387 20.0612574,22.6837722 L12.7279241,0.683772234 C12.59181,0.275430095 12.2096712,1.47524345e-15 11.7792408,1.55431223e-15 L3,0 C1.34314575,3.04359188e-16 2.41183085e-16,1.34314575 4.4408921e-16,3 L0,21 C2.02906125e-16,22.6568542 1.34314575,24 3,24 Z"/>
    <path stroke="#2196F3" stroke-width="2" d="M14,6 L28,6 C29.6568542,6 31,7.34314575 31,9 L31,25 C31,26.6568542 29.6568542,28 28,28 L15.7807764,28 C15.3219088,28 14.9219257,27.6877026 14.8106339,27.2425356 L14,24"/>
    <rect width="2" height="2" x="7" y="7" fill="#2196F3"/>
    <path stroke="#2196F3" stroke-width="2" d="M5.5 13.5L10.5 13.5M20 12L28 12M24 12L24 9.5M20 20.5C23.3333333 18.5 25 15.6666667 25 12M21 14.5C21.3333333 17.5 23.3333333 19.5 27 20.5M8 7.39999962L4.49047852 16.5048828M8 7.39999962L11.5092773 16.480957"/>
  </g>
</svg>
